<!DOCTYPE svg PUBLIC "-//W3C//DTD SVG 20010904//EN" "http://www.w3.org/TR/2001/REC-SVG-20010904/DTD/svg10.dtd">
<svg version="1.0" xmlns="http://www.w3.org/2000/svg" width="10px" height="10px" viewBox="0 0 16000 16000">
<g fill="#3e75b2" stroke="none">
 <path d="M7510 15996 c-3 -3 -93 -10 -200 -15 -192 -11 -324 -23 -448 -41 -133 -20 -209 -32 -252 -40 -25 -5 -74 -14 -110 -20 -36 -6 -83 -15 -105 -20 -22 -5 -62 -14 -90 -20 -121 -26 -429 -102 -525 -131 -58 -17 -118 -34 -135 -39 -47 -12 -321 -105 -415 -140 -47 -18 -110 -41 -140 -52 -53 -19 -73 -27 -150 -61 -19 -9 -57 -24 -85 -35 -27 -11 -79 -33 -115 -50 -36 -16 -87 -40 -115 -52 -65 -29 -408 -201 -460 -230 -22 -13 -65 -36 -95 -53 -30 -17 -67 -38 -82 -49 -14 -10 -29 -18 -33 -18 -4 0 -19 -8 -33 -19 -15 -10 -43 -28 -62 -39 -196 -111 -535 -343 -775 -530 -607 -473 -1154 -1039 -1594 -1651 -134 -185 -290 -423 -363 -551 -11 -19 -29 -47 -39 -62 -11 -14 -19 -29 -19 -33 0 -4 -8 -19 -18 -33 -11 -15 -32 -52 -49 -82 -17 -30 -40 -73 -53 -95 -27 -47 -196 -386 -232 -465 -64 -140 -82 -178 -100 -225 -11 -27 -26 -66 -35 -85 -34 -77 -42 -97 -61 -150 -11 -30 -34 -93 -52 -140 -35 -96 -128 -369 -140 -415 -5 -16 -18 -61 -30 -100 -22 -74 -77 -276 -90 -335 -9 -37 -47 -209 -61 -275 -23 -103 -59 -304 -79 -445 -24 -157 -31 -224 -40 -365 -5 -82 -14 -215 -21 -295 -7 -93 -9 -313 -7 -615 5 -532 20 -808 58 -1063 20 -133 32 -209 40 -252 5 -25 14 -74 20 -110 6 -36 15 -83 20 -105 5 -22 14 -62 20 -90 95 -450 259 -977 421 -1360 5 -11 24 -56 42 -100 19 -44 45 -105 58 -135 26 -61 270 -550 294 -590 25 -43 137 -234 155 -265 168 -291 520 -780 764 -1060 385 -443 821 -857 1197 -1140 279 -210 324 -243 474 -341 67 -43 130 -84 140 -91 157 -96 301 -182 345 -206 30 -17 73 -41 95 -54 51 -30 496 -252 555 -277 25 -11 72 -31 105 -46 33 -14 76 -32 95 -40 19 -7 39 -17 44 -22 6 -4 16 -8 23 -8 7 0 32 -9 56 -19 56 -25 171 -69 227 -87 25 -8 54 -19 65 -24 22 -10 221 -75 335 -110 41 -12 86 -26 100 -30 14 -4 43 -13 65 -19 22 -6 72 -19 110 -30 128 -35 336 -83 480 -111 33 -6 78 -15 100 -20 22 -4 72 -13 110 -19 39 -7 95 -16 125 -21 354 -58 643 -75 1255 -75 711 0 1015 24 1500 116 28 5 75 14 105 20 30 6 75 15 100 21 25 5 63 13 85 18 77 17 221 52 290 71 39 11 88 24 110 30 22 6 51 15 65 19 14 4 59 18 100 30 205 63 436 144 625 220 127 51 143 57 235 97 25 11 65 29 90 39 59 25 503 247 555 277 22 13 65 37 95 54 180 99 506 306 695 442 161 116 183 133 240 177 541 416 1063 938 1479 1479 44 57 61 79 177 240 136 189 343 515 442 695 17 30 41 73 54 95 30 52 252 496 277 555 10 25 28 65 39 90 40 92 46 108 97 235 76 189 157 420 220 625 12 41 26 86 30 100 4 14 13 43 19 65 6 22 19 72 30 110 35 128 84 342 110 475 6 30 15 78 20 105 93 486 116 786 116 1495 0 618 -17 906 -75 1260 -5 30 -14 87 -21 125 -6 39 -15 88 -19 110 -5 22 -14 67 -20 100 -28 144 -76 352 -111 480 -11 39 -24 88 -30 110 -6 22 -15 51 -19 65 -4 14 -18 59 -30 100 -28 94 -98 308 -110 335 -5 11 -16 40 -24 65 -18 56 -62 171 -87 227 -10 24 -19 49 -19 56 0 7 -4 17 -8 22 -5 6 -15 26 -22 45 -8 19 -26 62 -40 95 -15 33 -35 80 -46 105 -24 58 -246 502 -277 555 -13 22 -37 65 -54 95 -147 269 -374 613 -596 904 -350 459 -713 844 -1188 1256 -281 244 -764 593 -1054 760 -31 18 -222 130 -265 155 -40 24 -529 268 -590 294 -30 13 -91 39 -135 58 -44 18 -88 38 -97 43 -10 6 -22 10 -28 10 -6 0 -29 8 -53 19 -37 17 -81 34 -246 96 -112 42 -447 149 -566 180 -147 40 -332 86 -403 101 -42 9 -95 20 -117 25 -65 14 -215 43 -320 60 -382 63 -642 80 -1295 86 -284 2 -518 2 -520 -1z m1015 -405 c472 -36 897 -103 1315 -210 206 -53 270 -70 300 -80 14 -5 59 -19 100 -31 97 -29 194 -61 300 -100 47 -18 96 -35 110 -40 57 -18 322 -127 470 -192 75 -34 400 -195 485 -241 735 -399 1423 -932 1969 -1527 295 -322 518 -604 746 -945 108 -162 270 -420 270 -431 0 -2 14 -27 32 -56 79 -133 262 -496 341 -678 8 -19 24 -55 35 -80 25 -57 122 -297 132 -330 5 -14 27 -77 50 -140 23 -63 51 -143 61 -177 10 -35 28 -93 40 -130 11 -38 25 -83 30 -100 5 -18 13 -48 18 -65 18 -64 72 -274 82 -323 6 -27 15 -66 19 -85 18 -81 59 -290 70 -360 6 -41 15 -95 20 -120 8 -43 18 -120 40 -297 71 -590 64 -1235 -21 -1873 -10 -71 -15 -107 -39 -252 -16 -91 -50 -267 -70 -358 -4 -19 -13 -57 -19 -85 -6 -27 -20 -86 -32 -130 -11 -44 -24 -96 -29 -115 -5 -19 -13 -52 -19 -72 -6 -21 -15 -53 -20 -70 -65 -229 -203 -622 -286 -813 -7 -16 -19 -46 -28 -65 -8 -19 -24 -56 -36 -82 -12 -27 -30 -69 -42 -95 -57 -129 -229 -465 -301 -586 -15 -26 -28 -49 -28 -51 0 -9 -156 -260 -243 -391 -234 -352 -451 -630 -731 -940 -168 -185 -256 -274 -441 -444 -348 -319 -614 -528 -990 -778 -131 -87 -382 -243 -391 -243 -2 0 -27 -14 -56 -32 -111 -66 -418 -223 -573 -293 -66 -30 -142 -64 -182 -81 -18 -8 -48 -20 -65 -28 -190 -83 -597 -226 -818 -287 -19 -6 -51 -15 -70 -20 -19 -6 -51 -14 -70 -19 -19 -5 -71 -18 -115 -29 -44 -12 -102 -26 -130 -32 -27 -6 -66 -15 -85 -19 -81 -18 -290 -59 -360 -70 -41 -6 -95 -15 -120 -20 -43 -8 -120 -18 -297 -40 -532 -64 -1174 -64 -1706 0 -177 22 -254 32 -297 40 -25 5 -79 14 -120 20 -70 11 -279 52 -360 70 -19 4 -57 13 -85 19 -49 10 -259 64 -322 82 -18 5 -48 13 -65 18 -236 67 -623 203 -815 287 -18 8 -49 21 -68 29 -132 57 -199 88 -370 171 -149 73 -306 156 -383 202 -29 18 -54 32 -56 32 -10 0 -267 160 -421 263 -647 431 -1228 961 -1706 1557 -290 362 -560 767 -776 1165 -45 84 -209 415 -235 475 -9 19 -28 62 -43 95 -30 67 -143 346 -155 385 -5 14 -22 63 -40 110 -34 92 -64 182 -100 300 -12 41 -26 86 -31 100 -34 98 -136 519 -170 700 -89 477 -124 818 -136 1325 -11 503 33 1003 136 1555 35 183 138 607 170 700 5 14 19 59 31 100 31 107 84 266 115 346 100 259 157 398 217 534 33 73 194 398 241 485 711 1312 1778 2380 3092 3092 83 45 407 206 485 241 128 57 273 116 534 217 80 31 239 84 346 115 41 12 86 26 100 31 93 32 517 135 700 170 357 67 612 99 940 119 96 6 184 12 195 14 36 8 697 -3 830 -13z"/>
 <path d="M7715 14934 c-383 -12 -792 -65 -1260 -165 -244 -52 -701 -188 -900 -269 -11 -4 -47 -18 -80 -31 -58 -22 -232 -94 -305 -126 -73 -33 -458 -224 -515 -256 -33 -19 -82 -47 -110 -62 -245 -137 -684 -437 -891 -609 -34 -28 -97 -80 -140 -116 -254 -212 -601 -559 -814 -814 -36 -43 -88 -106 -116 -140 -172 -207 -472 -646 -609 -891 -15 -27 -43 -77 -62 -110 -32 -57 -223 -442 -256 -515 -32 -73 -104 -247 -126 -305 -13 -33 -27 -69 -31 -80 -86 -212 -195 -581 -280 -950 -58 -250 -101 -545 -142 -965 -15 -165 -15 -895 0 -1060 41 -420 84 -715 142 -965 82 -355 178 -683 266 -911 14 -38 35 -94 47 -124 20 -54 94 -232 124 -300 34 -74 224 -458 256 -515 19 -33 47 -82 62 -110 137 -245 437 -684 609 -891 28 -34 80 -97 116 -140 208 -250 564 -605 814 -814 43 -36 106 -88 140 -116 207 -172 646 -472 891 -609 28 -15 77 -43 110 -62 57 -32 441 -222 515 -256 68 -30 246 -104 300 -124 30 -12 86 -33 124 -47 109 -42 319 -111 471 -154 179 -51 421 -110 540 -132 33 -7 78 -15 100 -20 162 -35 411 -68 765 -102 166 -16 895 -15 1060 0 292 29 338 34 395 42 33 5 96 14 140 20 44 6 100 15 125 20 25 5 74 14 110 20 36 6 83 15 105 20 22 5 63 14 90 20 316 70 741 195 950 280 11 4 70 27 130 51 61 23 138 55 173 71 34 15 64 28 66 28 5 0 250 115 296 139 109 57 238 126 269 144 20 11 56 31 81 45 296 165 768 497 1039 732 347 301 608 568 889 910 209 254 491 663 637 925 15 28 43 77 62 110 33 59 225 446 255 515 9 19 25 55 36 80 11 25 41 99 67 165 26 66 50 129 55 140 84 206 210 634 280 950 6 28 15 68 20 90 5 22 14 69 20 105 6 36 15 85 20 110 5 25 14 81 20 125 6 44 15 107 20 140 5 33 13 107 19 165 6 58 16 161 23 230 7 75 12 287 12 530 0 243 -5 455 -12 530 -7 69 -17 172 -23 230 -6 58 -14 132 -19 165 -5 33 -14 96 -20 140 -6 44 -15 100 -20 125 -5 25 -14 74 -20 110 -6 36 -15 83 -20 105 -5 22 -14 63 -20 90 -70 316 -195 741 -280 950 -4 11 -27 70 -51 130 -23 61 -55 138 -71 173 -15 34 -28 65 -28 68 0 9 -225 462 -263 529 -19 33 -47 83 -62 110 -171 306 -495 767 -735 1044 -433 501 -862 885 -1410 1261 -123 84 -423 270 -436 270 -3 0 -18 8 -32 19 -23 15 -129 72 -297 160 -48 25 -296 141 -301 141 -2 0 -32 13 -66 28 -35 16 -112 48 -173 71 -60 24 -119 47 -130 51 -209 85 -634 210 -950 280 -27 6 -68 15 -90 20 -22 5 -69 14 -105 20 -36 6 -85 15 -110 20 -25 5 -81 14 -125 20 -44 6 -107 15 -140 20 -33 5 -109 14 -170 19 -60 6 -157 15 -215 21 -110 10 -652 20 -825 14z m540 -599 c105 -3 233 -10 285 -15 185 -19 286 -31 348 -40 167 -26 265 -43 347 -60 22 -5 67 -14 100 -21 96 -20 403 -98 470 -119 320 -103 548 -187 715 -262 25 -11 65 -29 90 -40 62 -27 356 -174 405 -202 22 -12 65 -36 95 -53 158 -87 415 -251 600 -384 307 -221 635 -509 903 -794 353 -376 689 -831 910 -1235 17 -30 41 -73 53 -95 27 -46 147 -288 192 -385 117 -254 188 -443 312 -825 21 -67 99 -374 119 -470 7 -33 16 -78 21 -100 17 -83 35 -188 59 -347 10 -63 19 -142 43 -358 8 -75 13 -261 13 -530 0 -269 -5 -455 -13 -530 -24 -216 -33 -295 -43 -357 -24 -160 -42 -265 -59 -348 -5 -22 -14 -67 -21 -100 -20 -96 -98 -403 -119 -470 -124 -382 -195 -571 -312 -825 -49 -106 -146 -300 -184 -370 -20 -36 -48 -87 -63 -115 -87 -157 -251 -413 -382 -595 -379 -527 -902 -1050 -1429 -1429 -182 -131 -438 -295 -595 -382 -27 -15 -79 -43 -115 -63 -70 -38 -264 -135 -370 -184 -204 -94 -402 -172 -625 -247 -86 -28 -143 -46 -340 -104 -68 -20 -322 -80 -430 -101 -110 -22 -149 -29 -217 -39 -181 -29 -206 -32 -488 -63 -156 -17 -904 -17 -1060 0 -282 31 -307 34 -487 63 -69 10 -108 17 -218 39 -108 21 -362 81 -430 101 -197 58 -254 76 -340 104 -153 51 -343 123 -452 171 -18 8 -50 21 -70 30 -121 52 -369 173 -473 230 -36 20 -87 48 -115 63 -157 87 -412 251 -597 383 -520 374 -1052 906 -1426 1426 -132 185 -296 440 -383 597 -15 28 -43 79 -63 115 -57 104 -178 352 -230 473 -9 20 -22 52 -30 70 -48 109 -120 299 -171 452 -28 86 -46 143 -104 340 -20 68 -80 322 -101 430 -22 110 -29 149 -39 218 -29 180 -32 205 -63 487 -17 156 -17 904 0 1060 31 282 34 307 63 488 5 37 15 90 20 117 5 28 14 75 20 105 19 98 79 357 100 425 58 197 76 254 104 340 51 151 121 338 170 450 7 17 20 48 30 70 55 128 174 371 231 475 20 36 48 88 63 115 87 157 251 412 383 597 374 520 906 1052 1426 1426 185 132 440 296 597 383 28 15 79 43 115 63 104 57 356 180 470 229 19 8 51 22 70 30 152 67 351 139 655 237 67 21 374 99 470 119 33 7 78 16 100 21 22 5 56 12 75 15 263 45 419 67 630 85 149 14 499 29 555 24 22 -2 126 -6 230 -9z"/>
 <path d="M7710 13215 c-223 -27 -417 -120 -578 -278 -164 -162 -257 -350 -292 -594 -7 -48 -10 -825 -10 -2302 0 -1880 -2 -2231 -14 -2231 -13 0 -106 34 -138 51 -10 5 -22 9 -28 9 -18 0 -257 120 -320 161 -33 21 -62 39 -65 39 -9 0 -161 114 -233 174 -92 76 -281 270 -337 344 -99 132 -89 -4 27 -353 27 -82 54 -154 59 -160 5 -5 9 -14 9 -21 0 -31 168 -380 241 -499 163 -270 362 -516 560 -696 291 -262 572 -418 904 -500 44 -11 107 -28 140 -37 81 -22 649 -25 735 -4 395 97 684 376 768 742 6 25 14 59 18 75 5 17 10 1054 13 2306 l6 2277 45 -15 c365 -118 749 -375 1005 -674 111 -130 133 -151 145 -144 17 10 -8 147 -50 280 -58 183 -78 238 -111 312 -10 24 -19 46 -19 50 0 25 -178 376 -250 493 -267 436 -652 807 -1035 998 -116 58 -141 68 -230 98 -139 46 -336 92 -443 103 -133 14 -389 12 -522 -4z"/>
 <path d="M7640 5733 c-96 -6 -287 -52 -385 -92 -197 -81 -344 -179 -496 -330 -184 -184 -285 -347 -357 -571 -62 -194 -72 -259 -72 -476 0 -226 23 -365 90 -539 4 -11 27 -60 50 -110 141 -296 392 -546 686 -685 159 -75 222 -95 389 -125 91 -17 421 -20 488 -6 23 5 69 15 102 22 128 25 298 92 425 165 154 89 362 285 466 439 76 113 142 246 182 370 19 58 26 85 54 210 8 40 13 128 12 260 0 201 -5 239 -49 410 -63 244 -247 535 -445 703 -327 277 -681 387 -1140 355z"/>
 </g>

</svg>