<!DOCTYPE svg>
<svg xmlns="http://www.w3.org/2000/svg" version="1.0" viewBox="0 0 16000 16000" width="10px" height="10px">
	<g stroke="#3e75b2" fill="none">
		<circle cx="8000" cy="8000" r="7790" stroke-width="400"/>
		<circle cx="8000" cy="8000" r="6650" stroke-width="500"/>
	</g>
	<g fill="#3e75b2">
		<circle cx="7820" cy="4230" r="1500"/>
		<path d="M7710 13215 c-223 -27 -417 -120 -578 -278 -164 -162 -257 -350 -292 -594 -7 -48 -10 -825 -10 -2302 0 -1880 -2 -2231 -14 -2231 -13 0 -106 34 -138 51 -10 5 -22 9 -28 9 -18 0 -257 120 -320 161 -33 21 -62 39 -65 39 -9 0 -161 114 -233 174 -92 76 -281 270 -337 344 -99 132 -89 -4 27 -353 27 -82 54 -154 59 -160 5 -5 9 -14 9 -21 0 -31 168 -380 241 -499 163 -270 362 -516 560 -696 291 -262 572 -418 904 -500 44 -11 107 -28 140 -37 81 -22 649 -25 735 -4 395 97 684 376 768 742 6 25 14 59 18 75 5 17 10 1054 13 2306 l6 2277 45 -15 c365 -118 749 -375 1005 -674 111 -130 133 -151 145 -144 17 10 -8 147 -50 280 -58 183 -78 238 -111 312 -10 24 -19 46 -19 50 0 25 -178 376 -250 493 -267 436 -652 807 -1035 998 -116 58 -141 68 -230 98 -139 46 -336 92 -443 103 -133 14 -389 12 -522 -4z"/>
	</g>
</svg>